<?xml version="1.0" encoding="utf-8"?>
<!-- Generator: Adobe Illustrator 25.0.1, SVG Export Plug-In . SVG Version: 6.00 Build 0)  -->
<svg version="1.0" id="katman_1" xmlns="http://www.w3.org/2000/svg" xmlns:xlink="http://www.w3.org/1999/xlink" x="0px" y="0px"
	 viewBox="0 0 560 400" style="enable-background:new 0 0 560 400;" xml:space="preserve">
<g>
	<path d="M107.4,200.4c0,20.5-16.5,37.2-37,37.2s-37-16.7-37-37.2s16.5-37.2,37-37.2S107.4,179.9,107.4,200.4 M148,200.4
		c0,19.3-8.3,35-18.5,35s-18.5-15.7-18.5-35s8.3-35,18.5-35S148,181.1,148,200.4 M164.6,200.4c0,17.3-2.9,31.4-6.5,31.4
		c-3.6,0-6.5-14.1-6.5-31.4s2.9-31.4,6.5-31.4S164.6,183.1,164.6,200.4 M266.5,166.4l0.1,0v-0.8h-21l-19.5,45.9l-19.5-45.9H184v0.8
		l0.1,0c3.8,0.9,5.8,2.2,5.8,6.8v54.5c0,4.7-2,5.9-5.8,6.8l-0.1,0v0.8h15.4v-0.8l-0.1,0c-3.8-0.9-5.8-2.2-5.8-6.8v-51.4l25.1,59h1.4
		l25.8-60.6v54.3c-0.3,3.7-2.3,4.8-5.7,5.6l-0.1,0v0.8h26.8v-0.8l-0.1,0c-3.5-0.8-5.5-1.9-5.8-5.6l0-55.9h0
		C260.8,168.6,262.7,167.3,266.5,166.4 M278.8,202.5c0.4-9.8,4-16.9,9.9-17c1.8,0,3.3,0.6,4.5,1.8c2.5,2.4,3.7,7.6,3.5,15.2H278.8z
		 M278.5,205.3h31.4v-0.1c-0.1-7.5-2.3-13.3-6.4-17.3c-3.6-3.5-9-5.4-14.6-5.4h-0.1c-2.9,0-6.5,0.7-9,2c-2.9,1.3-5.5,3.4-7.6,6
		c-3.4,4.2-5.5,10-6,16.4c0,0.2,0,0.4,0,0.6c0,0.2,0,0.4,0,0.6c0,0.9-0.1,1.8,0,2.7c0.3,14.6,8.2,26.3,22.2,26.3
		c12.3,0,19.5-9,21.2-21.1l-0.9-0.3c-3.1,6.5-8.8,10.4-15.2,9.9C284.6,224.9,277.9,216,278.5,205.3 M345.3,225.1
		c-1,2.4-3.2,3.8-6.1,3.8s-5.5-2-7.4-5.6c-2-3.9-3.1-9.3-3.1-15.7c0-13.4,4.2-22.1,10.6-22.1c2.7,0,4.8,1.3,5.9,3.7V225.1z
		 M366.2,234.7c-3.8-0.9-5.8-2.3-5.8-7.2v-65.1l-23.3,6.9v0.8l0.1,0c3.2-0.3,5.4,0.2,6.7,1.4c1,0.9,1.5,2.3,1.5,4.3v8.9
		c-2.3-1.5-5-2.2-8.3-2.2c-6.7,0-12.9,2.8-17.3,8c-4.6,5.4-7.1,12.7-7.1,21.2c0,15.2,7.5,25.4,18.6,25.4c6.5,0,11.7-3.6,14.1-9.6
		v8.1h20.9v-0.8L366.2,234.7z M386.1,171.2c0-4.7-3.6-8.3-8.3-8.3c-4.7,0-8.4,3.7-8.4,8.3c0,4.7,3.7,8.3,8.4,8.3
		C382.6,179.6,386.1,176,386.1,171.2 M391.6,234.7c-3.8-0.9-5.8-2.3-5.8-7.2h0v-44.9l-20.9,6v0.8l0.1,0c4.5,0.4,5.8,2,5.8,7.2v38.8
		h20.9v-0.8L391.6,234.7z M445.2,234.7c-3.8-0.9-5.8-2.3-5.8-7.2v-44.9l-19.9,5.8v0.8l0.1,0c3.7,0.4,4.8,2,4.8,7.3V225
		c-1.2,2.4-3.5,3.9-6.4,4c-4.5,0-7-3.1-7-8.6v-37.7l-20.9,6v0.8l0.1,0c4.5,0.4,5.8,2,5.8,7.2v24c0,1.7,0.1,3.3,0.4,5l0.4,1.6
		c1.8,6.3,6.4,9.7,13.7,9.7c6.2,0,11.6-3.8,13.9-9.8v8.3h20.9L445.2,234.7L445.2,234.7z M526.5,235.5v-0.8l-0.1,0
		c-4.2-1-5.8-2.8-5.8-6.5v-30.5c0-9.5-5.3-15.2-14.3-15.2c-6.5,0-12,3.8-14.1,9.6c-1.7-6.2-6.5-9.6-13.7-9.6
		c-6.3,0-11.2,3.3-13.3,8.9v-8.8l-20.9,5.8v0.8l0.1,0c4.5,0.4,5.8,2,5.8,7.2v39.1h19.5v-0.8l-0.1,0c-3.3-0.8-4.4-2.2-4.4-5.9v-35
		c0.9-2.1,2.6-4.5,6.1-4.5c4.3,0,6.6,3,6.6,8.9v37.2h19.5v-0.8l-0.1,0c-3.3-0.8-4.4-2.2-4.4-5.9v-31.1c0-1.2-0.1-2.3-0.3-3.5
		c0.9-2.2,2.8-4.9,6.4-4.9c4.4,0,6.6,2.9,6.6,8.9v37.2H526.5z"/>
</g>
</svg>
